<mxfile host="app.diagrams.net" agent="Mozilla/5.0 (iPad; CPU OS 26_0_0 like Mac OS X) AppleWebKit/605.1.15 (KHTML, like Gecko) CriOS/140.0.7339.122 Mobile/15E148 Safari/604.1" version="28.2.3" pages="2">
  <diagram name="Timer Wheel" id="To7Yo9WfeafjqxEIEbYm">
    <mxGraphModel dx="2398" dy="2280" grid="1" gridSize="10" guides="1" tooltips="1" connect="1" arrows="1" fold="1" page="1" pageScale="1" pageWidth="827" pageHeight="1169" math="0" shadow="0">
      <root>
        <mxCell id="0" />
        <mxCell id="1" parent="0" />
        <mxCell id="E8zTIs7ldYVHIQ_cHiZL-1" value="0" style="rounded=1;whiteSpace=wrap;html=1;" parent="1" vertex="1">
          <mxGeometry x="120" y="240" width="120" height="60" as="geometry" />
        </mxCell>
        <mxCell id="E8zTIs7ldYVHIQ_cHiZL-2" value="2" style="rounded=1;whiteSpace=wrap;html=1;" parent="1" vertex="1">
          <mxGeometry x="360" y="240" width="120" height="60" as="geometry" />
        </mxCell>
        <mxCell id="E8zTIs7ldYVHIQ_cHiZL-3" value="1" style="rounded=1;whiteSpace=wrap;html=1;" parent="1" vertex="1">
          <mxGeometry x="240" y="240" width="120" height="60" as="geometry" />
        </mxCell>
        <mxCell id="E8zTIs7ldYVHIQ_cHiZL-4" value="3" style="rounded=1;whiteSpace=wrap;html=1;" parent="1" vertex="1">
          <mxGeometry x="480" y="240" width="120" height="60" as="geometry" />
        </mxCell>
        <mxCell id="E8zTIs7ldYVHIQ_cHiZL-5" value="4" style="rounded=1;whiteSpace=wrap;html=1;" parent="1" vertex="1">
          <mxGeometry x="600" y="240" width="120" height="60" as="geometry" />
        </mxCell>
        <mxCell id="E8zTIs7ldYVHIQ_cHiZL-6" value="6" style="rounded=1;whiteSpace=wrap;html=1;" parent="1" vertex="1">
          <mxGeometry x="840" y="240" width="120" height="60" as="geometry" />
        </mxCell>
        <mxCell id="E8zTIs7ldYVHIQ_cHiZL-7" value="5" style="rounded=1;whiteSpace=wrap;html=1;" parent="1" vertex="1">
          <mxGeometry x="720" y="240" width="120" height="60" as="geometry" />
        </mxCell>
        <mxCell id="E8zTIs7ldYVHIQ_cHiZL-8" value="7" style="rounded=1;whiteSpace=wrap;html=1;" parent="1" vertex="1">
          <mxGeometry x="960" y="240" width="120" height="60" as="geometry" />
        </mxCell>
        <mxCell id="E8zTIs7ldYVHIQ_cHiZL-9" value="level_depth&lt;div&gt;[8]&lt;/div&gt;" style="text;html=1;align=center;verticalAlign=middle;whiteSpace=wrap;rounded=0;" parent="1" vertex="1">
          <mxGeometry x="30" y="250" width="90" height="40" as="geometry" />
        </mxCell>
        <mxCell id="E8zTIs7ldYVHIQ_cHiZL-11" value="0" style="rounded=0;whiteSpace=wrap;html=1;" parent="1" vertex="1">
          <mxGeometry x="-120" y="440" width="40" height="40" as="geometry" />
        </mxCell>
        <mxCell id="E8zTIs7ldYVHIQ_cHiZL-12" value="" style="rounded=0;whiteSpace=wrap;html=1;" parent="1" vertex="1">
          <mxGeometry x="-80" y="440" width="40" height="40" as="geometry" />
        </mxCell>
        <mxCell id="E8zTIs7ldYVHIQ_cHiZL-14" value="" style="rounded=0;whiteSpace=wrap;html=1;" parent="1" vertex="1">
          <mxGeometry x="-40" y="440" width="40" height="40" as="geometry" />
        </mxCell>
        <mxCell id="E8zTIs7ldYVHIQ_cHiZL-15" value="" style="rounded=0;whiteSpace=wrap;html=1;" parent="1" vertex="1">
          <mxGeometry y="440" width="40" height="40" as="geometry" />
        </mxCell>
        <mxCell id="E8zTIs7ldYVHIQ_cHiZL-17" value="" style="rounded=0;whiteSpace=wrap;html=1;" parent="1" vertex="1">
          <mxGeometry x="40" y="440" width="40" height="40" as="geometry" />
        </mxCell>
        <mxCell id="E8zTIs7ldYVHIQ_cHiZL-18" value="" style="rounded=0;whiteSpace=wrap;html=1;" parent="1" vertex="1">
          <mxGeometry x="80" y="440" width="40" height="40" as="geometry" />
        </mxCell>
        <mxCell id="E8zTIs7ldYVHIQ_cHiZL-19" value="" style="rounded=0;whiteSpace=wrap;html=1;" parent="1" vertex="1">
          <mxGeometry x="120" y="440" width="40" height="40" as="geometry" />
        </mxCell>
        <mxCell id="E8zTIs7ldYVHIQ_cHiZL-20" value="" style="rounded=0;whiteSpace=wrap;html=1;" parent="1" vertex="1">
          <mxGeometry x="160" y="440" width="40" height="40" as="geometry" />
        </mxCell>
        <mxCell id="E8zTIs7ldYVHIQ_cHiZL-21" value="" style="rounded=0;whiteSpace=wrap;html=1;" parent="1" vertex="1">
          <mxGeometry x="280" y="440" width="40" height="40" as="geometry" />
        </mxCell>
        <mxCell id="E8zTIs7ldYVHIQ_cHiZL-22" value="" style="rounded=0;whiteSpace=wrap;html=1;" parent="1" vertex="1">
          <mxGeometry x="320" y="440" width="40" height="40" as="geometry" />
        </mxCell>
        <mxCell id="E8zTIs7ldYVHIQ_cHiZL-23" value="" style="rounded=0;whiteSpace=wrap;html=1;" parent="1" vertex="1">
          <mxGeometry x="360" y="440" width="40" height="40" as="geometry" />
        </mxCell>
        <mxCell id="E8zTIs7ldYVHIQ_cHiZL-24" value="" style="rounded=0;whiteSpace=wrap;html=1;" parent="1" vertex="1">
          <mxGeometry x="400" y="440" width="40" height="40" as="geometry" />
        </mxCell>
        <mxCell id="E8zTIs7ldYVHIQ_cHiZL-25" value="" style="rounded=0;whiteSpace=wrap;html=1;" parent="1" vertex="1">
          <mxGeometry x="440" y="440" width="40" height="40" as="geometry" />
        </mxCell>
        <mxCell id="E8zTIs7ldYVHIQ_cHiZL-26" value="" style="rounded=0;whiteSpace=wrap;html=1;" parent="1" vertex="1">
          <mxGeometry x="480" y="440" width="40" height="40" as="geometry" />
        </mxCell>
        <mxCell id="E8zTIs7ldYVHIQ_cHiZL-27" value="" style="rounded=0;whiteSpace=wrap;html=1;" parent="1" vertex="1">
          <mxGeometry x="520" y="440" width="40" height="40" as="geometry" />
        </mxCell>
        <mxCell id="E8zTIs7ldYVHIQ_cHiZL-28" value="63" style="rounded=0;whiteSpace=wrap;html=1;" parent="1" vertex="1">
          <mxGeometry x="560" y="440" width="40" height="40" as="geometry" />
        </mxCell>
        <mxCell id="E8zTIs7ldYVHIQ_cHiZL-29" value="" style="endArrow=none;dashed=1;html=1;dashPattern=1 3;strokeWidth=2;rounded=0;fontSize=12;startSize=8;endSize=8;curved=1;" parent="1" edge="1">
          <mxGeometry width="50" height="50" relative="1" as="geometry">
            <mxPoint x="210" y="460" as="sourcePoint" />
            <mxPoint x="270" y="460" as="targetPoint" />
          </mxGeometry>
        </mxCell>
        <mxCell id="E8zTIs7ldYVHIQ_cHiZL-31" value="" style="endArrow=none;dashed=1;html=1;rounded=0;fontSize=12;startSize=8;endSize=8;curved=1;exitX=0;exitY=0;exitDx=0;exitDy=0;entryX=0;entryY=1;entryDx=0;entryDy=0;" parent="1" source="E8zTIs7ldYVHIQ_cHiZL-11" target="E8zTIs7ldYVHIQ_cHiZL-1" edge="1">
          <mxGeometry width="50" height="50" relative="1" as="geometry">
            <mxPoint x="260" y="510" as="sourcePoint" />
            <mxPoint x="310" y="460" as="targetPoint" />
          </mxGeometry>
        </mxCell>
        <mxCell id="E8zTIs7ldYVHIQ_cHiZL-32" value="" style="endArrow=none;dashed=1;html=1;rounded=0;fontSize=12;startSize=8;endSize=8;curved=1;entryX=0;entryY=1;entryDx=0;entryDy=0;exitX=1;exitY=0;exitDx=0;exitDy=0;" parent="1" source="E8zTIs7ldYVHIQ_cHiZL-28" target="E8zTIs7ldYVHIQ_cHiZL-3" edge="1">
          <mxGeometry width="50" height="50" relative="1" as="geometry">
            <mxPoint x="190" y="390" as="sourcePoint" />
            <mxPoint x="240" y="340" as="targetPoint" />
          </mxGeometry>
        </mxCell>
        <mxCell id="E8zTIs7ldYVHIQ_cHiZL-34" value="Bucket [64]" style="text;html=1;align=center;verticalAlign=middle;whiteSpace=wrap;rounded=0;" parent="1" vertex="1">
          <mxGeometry x="-180" y="442.5" width="60" height="35" as="geometry" />
        </mxCell>
        <mxCell id="E8zTIs7ldYVHIQ_cHiZL-35" value="" style="endArrow=classic;startArrow=classic;html=1;rounded=0;fontSize=12;startSize=8;endSize=8;curved=1;" parent="1" edge="1">
          <mxGeometry width="50" height="50" relative="1" as="geometry">
            <mxPoint x="-100" y="520" as="sourcePoint" />
            <mxPoint x="-100" y="480" as="targetPoint" />
          </mxGeometry>
        </mxCell>
        <mxCell id="E8zTIs7ldYVHIQ_cHiZL-36" value="" style="swimlane;whiteSpace=wrap;html=1;" parent="1" vertex="1">
          <mxGeometry x="-120" y="520" width="80" height="50" as="geometry" />
        </mxCell>
        <mxCell id="E8zTIs7ldYVHIQ_cHiZL-37" value="" style="endArrow=classic;startArrow=classic;html=1;rounded=0;fontSize=12;startSize=8;endSize=8;curved=1;" parent="1" edge="1">
          <mxGeometry width="50" height="50" relative="1" as="geometry">
            <mxPoint x="-100" y="610" as="sourcePoint" />
            <mxPoint x="-100" y="570" as="targetPoint" />
          </mxGeometry>
        </mxCell>
        <mxCell id="E8zTIs7ldYVHIQ_cHiZL-38" value="" style="swimlane;whiteSpace=wrap;html=1;" parent="1" vertex="1">
          <mxGeometry x="-120" y="610" width="80" height="50" as="geometry" />
        </mxCell>
        <mxCell id="E8zTIs7ldYVHIQ_cHiZL-39" value="" style="endArrow=classic;startArrow=classic;html=1;rounded=0;fontSize=12;startSize=8;endSize=8;curved=1;" parent="1" edge="1">
          <mxGeometry width="50" height="50" relative="1" as="geometry">
            <mxPoint x="-100" y="700" as="sourcePoint" />
            <mxPoint x="-100" y="660" as="targetPoint" />
          </mxGeometry>
        </mxCell>
        <mxCell id="E8zTIs7ldYVHIQ_cHiZL-40" value="" style="swimlane;whiteSpace=wrap;html=1;" parent="1" vertex="1">
          <mxGeometry x="-120" y="700" width="80" height="50" as="geometry" />
        </mxCell>
        <mxCell id="E8zTIs7ldYVHIQ_cHiZL-41" value="" style="shape=curlyBracket;whiteSpace=wrap;html=1;rounded=1;labelPosition=left;verticalLabelPosition=middle;align=right;verticalAlign=middle;" parent="1" vertex="1">
          <mxGeometry x="-160" y="520" width="20" height="370" as="geometry" />
        </mxCell>
        <mxCell id="E8zTIs7ldYVHIQ_cHiZL-42" value="" style="endArrow=classic;startArrow=classic;html=1;rounded=0;fontSize=12;startSize=8;endSize=8;curved=1;" parent="1" edge="1">
          <mxGeometry width="50" height="50" relative="1" as="geometry">
            <mxPoint x="-100" y="840" as="sourcePoint" />
            <mxPoint x="-100" y="800" as="targetPoint" />
          </mxGeometry>
        </mxCell>
        <mxCell id="E8zTIs7ldYVHIQ_cHiZL-43" value="" style="swimlane;whiteSpace=wrap;html=1;" parent="1" vertex="1">
          <mxGeometry x="-120" y="840" width="80" height="50" as="geometry" />
        </mxCell>
        <mxCell id="E8zTIs7ldYVHIQ_cHiZL-44" value="" style="endArrow=none;dashed=1;html=1;dashPattern=1 3;strokeWidth=2;rounded=0;fontSize=12;startSize=8;endSize=8;curved=1;" parent="1" edge="1">
          <mxGeometry width="50" height="50" relative="1" as="geometry">
            <mxPoint x="-80" y="767" as="sourcePoint" />
            <mxPoint x="-80" y="807" as="targetPoint" />
          </mxGeometry>
        </mxCell>
        <mxCell id="E8zTIs7ldYVHIQ_cHiZL-45" value="timer_list&lt;div&gt;[level_depth+1]&lt;/div&gt;" style="text;html=1;align=center;verticalAlign=middle;whiteSpace=wrap;rounded=0;" parent="1" vertex="1">
          <mxGeometry x="-270" y="690" width="100" height="30" as="geometry" />
        </mxCell>
        <mxCell id="E8zTIs7ldYVHIQ_cHiZL-46" style="edgeStyle=none;curved=1;rounded=0;orthogonalLoop=1;jettySize=auto;html=1;entryX=0.75;entryY=1;entryDx=0;entryDy=0;fontSize=12;startSize=8;endSize=8;" parent="1" source="E8zTIs7ldYVHIQ_cHiZL-36" target="E8zTIs7ldYVHIQ_cHiZL-36" edge="1">
          <mxGeometry relative="1" as="geometry" />
        </mxCell>
        <mxCell id="E8zTIs7ldYVHIQ_cHiZL-47" style="edgeStyle=none;curved=1;rounded=0;orthogonalLoop=1;jettySize=auto;html=1;entryX=0.75;entryY=1;entryDx=0;entryDy=0;fontSize=12;startSize=8;endSize=8;" parent="1" source="E8zTIs7ldYVHIQ_cHiZL-40" target="E8zTIs7ldYVHIQ_cHiZL-40" edge="1">
          <mxGeometry relative="1" as="geometry" />
        </mxCell>
        <mxCell id="lGG7fAthIHY-nXA9N10E-1" value="" style="shape=flexArrow;endArrow=classic;html=1;rounded=0;fontSize=12;startSize=8;endSize=8;curved=1;" parent="1" edge="1">
          <mxGeometry width="50" height="50" relative="1" as="geometry">
            <mxPoint x="-100.59000000000003" y="350" as="sourcePoint" />
            <mxPoint x="-100.59000000000003" y="400" as="targetPoint" />
          </mxGeometry>
        </mxCell>
        <mxCell id="lGG7fAthIHY-nXA9N10E-12" value="" style="group;rotation=-40;" parent="1" vertex="1" connectable="0">
          <mxGeometry x="380" width="279" height="243" as="geometry" />
        </mxCell>
        <mxCell id="lGG7fAthIHY-nXA9N10E-3" value="" style="shape=image;html=1;verticalLabelPosition=bottom;verticalAlign=top;imageAspect=1;aspect=fixed;image=img/clipart/Gear_128x128.png;rotation=-40;" parent="lGG7fAthIHY-nXA9N10E-12" vertex="1">
          <mxGeometry x="-32" y="95" width="52" height="61" as="geometry" />
        </mxCell>
        <mxCell id="lGG7fAthIHY-nXA9N10E-4" value="" style="shape=image;html=1;verticalLabelPosition=bottom;verticalAlign=top;imageAspect=0;image=img/clipart/Gear_128x128.png;rotation=-40;" parent="lGG7fAthIHY-nXA9N10E-12" vertex="1">
          <mxGeometry x="13" y="93" width="50" height="60" as="geometry" />
        </mxCell>
        <mxCell id="lGG7fAthIHY-nXA9N10E-5" value="" style="shape=image;html=1;verticalLabelPosition=bottom;verticalAlign=top;imageAspect=0;image=img/clipart/Gear_128x128.png;rotation=-40;" parent="lGG7fAthIHY-nXA9N10E-12" vertex="1">
          <mxGeometry x="54" y="92" width="50" height="60" as="geometry" />
        </mxCell>
        <mxCell id="lGG7fAthIHY-nXA9N10E-7" value="" style="shape=image;html=1;verticalLabelPosition=bottom;verticalAlign=top;imageAspect=0;image=img/clipart/Gear_128x128.png;rotation=-40;" parent="lGG7fAthIHY-nXA9N10E-12" vertex="1">
          <mxGeometry x="95" y="93" width="50" height="60" as="geometry" />
        </mxCell>
        <mxCell id="lGG7fAthIHY-nXA9N10E-8" value="" style="shape=image;html=1;verticalLabelPosition=bottom;verticalAlign=top;imageAspect=1;aspect=fixed;image=img/clipart/Gear_128x128.png;rotation=-40;" parent="lGG7fAthIHY-nXA9N10E-12" vertex="1">
          <mxGeometry x="134" y="91" width="52" height="61" as="geometry" />
        </mxCell>
        <mxCell id="lGG7fAthIHY-nXA9N10E-9" value="" style="shape=image;html=1;verticalLabelPosition=bottom;verticalAlign=top;imageAspect=0;image=img/clipart/Gear_128x128.png;rotation=-40;" parent="lGG7fAthIHY-nXA9N10E-12" vertex="1">
          <mxGeometry x="178" y="89" width="50" height="60" as="geometry" />
        </mxCell>
        <mxCell id="lGG7fAthIHY-nXA9N10E-10" value="" style="shape=image;html=1;verticalLabelPosition=bottom;verticalAlign=top;imageAspect=0;image=img/clipart/Gear_128x128.png;rotation=-40;" parent="lGG7fAthIHY-nXA9N10E-12" vertex="1">
          <mxGeometry x="220" y="88" width="50" height="60" as="geometry" />
        </mxCell>
        <mxCell id="lGG7fAthIHY-nXA9N10E-11" value="" style="shape=image;html=1;verticalLabelPosition=bottom;verticalAlign=top;imageAspect=0;image=img/clipart/Gear_128x128.png;rotation=-40;" parent="lGG7fAthIHY-nXA9N10E-12" vertex="1">
          <mxGeometry x="261" y="88" width="50" height="60" as="geometry" />
        </mxCell>
      </root>
    </mxGraphModel>
  </diagram>
  <diagram id="yx3K2PcxkwbQRzOW-bKU" name="페이지-2">
    <mxGraphModel dx="4696" dy="1344" grid="1" gridSize="10" guides="1" tooltips="1" connect="1" arrows="1" fold="1" page="0" pageScale="1" pageWidth="827" pageHeight="1169" math="0" shadow="0">
      <root>
        <mxCell id="0" />
        <mxCell id="1" parent="0" />
        <mxCell id="oFQ_how2LxkNcKQ-NRh1-1" value="" style="endArrow=none;dashed=1;html=1;rounded=0;fontSize=12;startSize=8;endSize=8;curved=1;" edge="1" parent="1">
          <mxGeometry width="50" height="50" relative="1" as="geometry">
            <mxPoint x="-3160" y="-40" as="sourcePoint" />
            <mxPoint x="-2760" y="-40" as="targetPoint" />
          </mxGeometry>
        </mxCell>
        <mxCell id="oFQ_how2LxkNcKQ-NRh1-4" value="arm64" style="text;html=1;align=center;verticalAlign=middle;whiteSpace=wrap;rounded=0;fontStyle=1;fontSize=15;" vertex="1" parent="1">
          <mxGeometry x="-3280" y="-120" width="120" height="40" as="geometry" />
        </mxCell>
        <mxCell id="oFQ_how2LxkNcKQ-NRh1-18" style="edgeStyle=none;curved=1;rounded=0;orthogonalLoop=1;jettySize=auto;html=1;entryX=0.5;entryY=0;entryDx=0;entryDy=0;fontSize=12;startSize=8;endSize=8;" edge="1" parent="1" source="oFQ_how2LxkNcKQ-NRh1-6" target="oFQ_how2LxkNcKQ-NRh1-7">
          <mxGeometry relative="1" as="geometry" />
        </mxCell>
        <mxCell id="oFQ_how2LxkNcKQ-NRh1-6" value="bcm2711-rpi-4-b.dts" style="rounded=1;whiteSpace=wrap;html=1;" vertex="1" parent="1">
          <mxGeometry x="-3120" y="-120" width="160" height="40" as="geometry" />
        </mxCell>
        <mxCell id="oFQ_how2LxkNcKQ-NRh1-50" style="edgeStyle=none;curved=1;rounded=0;orthogonalLoop=1;jettySize=auto;html=1;entryX=0;entryY=0.5;entryDx=0;entryDy=0;fontSize=12;startSize=8;endSize=8;" edge="1" parent="1" source="oFQ_how2LxkNcKQ-NRh1-7" target="oFQ_how2LxkNcKQ-NRh1-49">
          <mxGeometry relative="1" as="geometry" />
        </mxCell>
        <mxCell id="oFQ_how2LxkNcKQ-NRh1-7" value="bcm2711-rpi-4-b.dts" style="rounded=1;whiteSpace=wrap;html=1;" vertex="1" parent="1">
          <mxGeometry x="-3120" width="160" height="40" as="geometry" />
        </mxCell>
        <mxCell id="oFQ_how2LxkNcKQ-NRh1-15" style="edgeStyle=none;curved=1;rounded=0;orthogonalLoop=1;jettySize=auto;html=1;entryX=0;entryY=0.5;entryDx=0;entryDy=0;fontSize=12;startSize=8;endSize=8;exitX=1;exitY=0.5;exitDx=0;exitDy=0;" edge="1" parent="1" source="oFQ_how2LxkNcKQ-NRh1-8" target="oFQ_how2LxkNcKQ-NRh1-13">
          <mxGeometry relative="1" as="geometry" />
        </mxCell>
        <mxCell id="oFQ_how2LxkNcKQ-NRh1-16" style="edgeStyle=none;curved=1;rounded=0;orthogonalLoop=1;jettySize=auto;html=1;entryX=0;entryY=0.5;entryDx=0;entryDy=0;fontSize=12;startSize=8;endSize=8;exitX=1;exitY=0.5;exitDx=0;exitDy=0;" edge="1" parent="1" source="oFQ_how2LxkNcKQ-NRh1-8" target="oFQ_how2LxkNcKQ-NRh1-14">
          <mxGeometry relative="1" as="geometry" />
        </mxCell>
        <mxCell id="oFQ_how2LxkNcKQ-NRh1-20" style="edgeStyle=none;curved=1;rounded=0;orthogonalLoop=1;jettySize=auto;html=1;fontSize=12;startSize=8;endSize=8;" edge="1" parent="1" source="oFQ_how2LxkNcKQ-NRh1-8" target="oFQ_how2LxkNcKQ-NRh1-19">
          <mxGeometry relative="1" as="geometry" />
        </mxCell>
        <mxCell id="oFQ_how2LxkNcKQ-NRh1-8" value="bcm2711.dtsi" style="rounded=1;whiteSpace=wrap;html=1;" vertex="1" parent="1">
          <mxGeometry x="-2960" y="80" width="160" height="40" as="geometry" />
        </mxCell>
        <mxCell id="oFQ_how2LxkNcKQ-NRh1-9" value="" style="endArrow=none;dashed=1;html=1;rounded=0;fontSize=12;startSize=8;endSize=8;curved=1;" edge="1" parent="1">
          <mxGeometry width="50" height="50" relative="1" as="geometry">
            <mxPoint x="-2760" y="680" as="sourcePoint" />
            <mxPoint x="-2760" y="-200" as="targetPoint" />
          </mxGeometry>
        </mxCell>
        <mxCell id="oFQ_how2LxkNcKQ-NRh1-10" value="dt-bindings" style="text;html=1;align=center;verticalAlign=middle;whiteSpace=wrap;rounded=0;fontStyle=1;fontSize=15;" vertex="1" parent="1">
          <mxGeometry x="-2680" y="-240" width="120" height="40" as="geometry" />
        </mxCell>
        <mxCell id="oFQ_how2LxkNcKQ-NRh1-11" value="arm" style="text;html=1;align=center;verticalAlign=middle;whiteSpace=wrap;rounded=0;fontStyle=1;fontSize=15;" vertex="1" parent="1">
          <mxGeometry x="-3280" y="40" width="120" height="40" as="geometry" />
        </mxCell>
        <mxCell id="oFQ_how2LxkNcKQ-NRh1-12" value="device tree" style="text;html=1;align=center;verticalAlign=middle;whiteSpace=wrap;rounded=0;fontStyle=1;fontSize=15;" vertex="1" parent="1">
          <mxGeometry x="-3000" y="-240" width="120" height="40" as="geometry" />
        </mxCell>
        <mxCell id="oFQ_how2LxkNcKQ-NRh1-13" value="interrupt-controller/arm-gic.h" style="rounded=0;whiteSpace=wrap;html=1;" vertex="1" parent="1">
          <mxGeometry x="-2720" y="-80" width="200" height="40" as="geometry" />
        </mxCell>
        <mxCell id="oFQ_how2LxkNcKQ-NRh1-14" value="soc/bcm2835-pm.h" style="rounded=0;whiteSpace=wrap;html=1;" vertex="1" parent="1">
          <mxGeometry x="-2720" width="200" height="40" as="geometry" />
        </mxCell>
        <mxCell id="oFQ_how2LxkNcKQ-NRh1-25" style="edgeStyle=none;curved=1;rounded=0;orthogonalLoop=1;jettySize=auto;html=1;entryX=0;entryY=0.5;entryDx=0;entryDy=0;fontSize=12;startSize=8;endSize=8;exitX=1;exitY=0.5;exitDx=0;exitDy=0;" edge="1" parent="1" source="oFQ_how2LxkNcKQ-NRh1-19" target="oFQ_how2LxkNcKQ-NRh1-14">
          <mxGeometry relative="1" as="geometry" />
        </mxCell>
        <mxCell id="oFQ_how2LxkNcKQ-NRh1-26" style="edgeStyle=none;curved=1;rounded=0;orthogonalLoop=1;jettySize=auto;html=1;entryX=0;entryY=0.5;entryDx=0;entryDy=0;fontSize=12;startSize=8;endSize=8;exitX=1;exitY=0.5;exitDx=0;exitDy=0;" edge="1" parent="1" source="oFQ_how2LxkNcKQ-NRh1-19" target="oFQ_how2LxkNcKQ-NRh1-21">
          <mxGeometry relative="1" as="geometry" />
        </mxCell>
        <mxCell id="oFQ_how2LxkNcKQ-NRh1-27" style="edgeStyle=none;curved=1;rounded=0;orthogonalLoop=1;jettySize=auto;html=1;entryX=0;entryY=0.5;entryDx=0;entryDy=0;fontSize=12;startSize=8;endSize=8;exitX=1;exitY=0.5;exitDx=0;exitDy=0;" edge="1" parent="1" source="oFQ_how2LxkNcKQ-NRh1-19" target="oFQ_how2LxkNcKQ-NRh1-22">
          <mxGeometry relative="1" as="geometry" />
        </mxCell>
        <mxCell id="oFQ_how2LxkNcKQ-NRh1-19" value="bcm283x.dtsi" style="rounded=1;whiteSpace=wrap;html=1;" vertex="1" parent="1">
          <mxGeometry x="-2960" y="160" width="160" height="40" as="geometry" />
        </mxCell>
        <mxCell id="oFQ_how2LxkNcKQ-NRh1-21" value="gpio/gpio.h" style="rounded=0;whiteSpace=wrap;html=1;" vertex="1" parent="1">
          <mxGeometry x="-2720" y="80" width="200" height="40" as="geometry" />
        </mxCell>
        <mxCell id="oFQ_how2LxkNcKQ-NRh1-22" value="interrupt-controller/irq.h" style="rounded=0;whiteSpace=wrap;html=1;" vertex="1" parent="1">
          <mxGeometry x="-2720" y="160" width="200" height="40" as="geometry" />
        </mxCell>
        <mxCell id="oFQ_how2LxkNcKQ-NRh1-31" style="edgeStyle=none;curved=1;rounded=0;orthogonalLoop=1;jettySize=auto;html=1;fontSize=12;startSize=8;endSize=8;" edge="1" parent="1" source="oFQ_how2LxkNcKQ-NRh1-28" target="oFQ_how2LxkNcKQ-NRh1-30">
          <mxGeometry relative="1" as="geometry" />
        </mxCell>
        <mxCell id="oFQ_how2LxkNcKQ-NRh1-38" style="edgeStyle=none;curved=1;rounded=0;orthogonalLoop=1;jettySize=auto;html=1;entryX=0;entryY=0.5;entryDx=0;entryDy=0;fontSize=12;startSize=8;endSize=8;" edge="1" parent="1" source="oFQ_how2LxkNcKQ-NRh1-28" target="oFQ_how2LxkNcKQ-NRh1-32">
          <mxGeometry relative="1" as="geometry" />
        </mxCell>
        <mxCell id="oFQ_how2LxkNcKQ-NRh1-28" value="bcm2711-rpi.dtsi" style="rounded=1;whiteSpace=wrap;html=1;" vertex="1" parent="1">
          <mxGeometry x="-2960" y="240" width="160" height="40" as="geometry" />
        </mxCell>
        <mxCell id="oFQ_how2LxkNcKQ-NRh1-39" style="edgeStyle=none;curved=1;rounded=0;orthogonalLoop=1;jettySize=auto;html=1;entryX=0;entryY=0.5;entryDx=0;entryDy=0;fontSize=12;startSize=8;endSize=8;" edge="1" parent="1" source="oFQ_how2LxkNcKQ-NRh1-30" target="oFQ_how2LxkNcKQ-NRh1-35">
          <mxGeometry relative="1" as="geometry" />
        </mxCell>
        <mxCell id="oFQ_how2LxkNcKQ-NRh1-30" value="bcm2835-rpi.dtsi" style="rounded=1;whiteSpace=wrap;html=1;" vertex="1" parent="1">
          <mxGeometry x="-2960" y="320" width="160" height="40" as="geometry" />
        </mxCell>
        <mxCell id="oFQ_how2LxkNcKQ-NRh1-32" value="reset/raspberrypi,firmware-reset.h" style="rounded=0;whiteSpace=wrap;html=1;" vertex="1" parent="1">
          <mxGeometry x="-2720" y="240" width="200" height="40" as="geometry" />
        </mxCell>
        <mxCell id="oFQ_how2LxkNcKQ-NRh1-35" value="power/raspberrypi-power.h" style="rounded=0;whiteSpace=wrap;html=1;" vertex="1" parent="1">
          <mxGeometry x="-2720" y="320" width="200" height="40" as="geometry" />
        </mxCell>
        <mxCell id="oFQ_how2LxkNcKQ-NRh1-37" value="bcm283x-rpi-led-deprecated.dtsi" style="rounded=1;whiteSpace=wrap;html=1;" vertex="1" parent="1">
          <mxGeometry x="-3000" y="400" width="200" height="40" as="geometry" />
        </mxCell>
        <mxCell id="oFQ_how2LxkNcKQ-NRh1-41" value="bcm283x-rpi-wifi-bt.dtsi" style="rounded=1;whiteSpace=wrap;html=1;" vertex="1" parent="1">
          <mxGeometry x="-3000" y="480" width="200" height="40" as="geometry" />
        </mxCell>
        <mxCell id="oFQ_how2LxkNcKQ-NRh1-47" value="" style="edgeStyle=elbowEdgeStyle;elbow=horizontal;endArrow=classic;html=1;curved=0;rounded=0;endSize=8;startSize=8;fontSize=12;exitX=0.5;exitY=1;exitDx=0;exitDy=0;entryX=0;entryY=0.5;entryDx=0;entryDy=0;" edge="1" parent="1" source="oFQ_how2LxkNcKQ-NRh1-7" target="oFQ_how2LxkNcKQ-NRh1-28">
          <mxGeometry width="50" height="50" relative="1" as="geometry">
            <mxPoint x="-3040" y="40" as="sourcePoint" />
            <mxPoint x="-2990" y="210" as="targetPoint" />
            <Array as="points">
              <mxPoint x="-3040" y="150" />
            </Array>
          </mxGeometry>
        </mxCell>
        <mxCell id="oFQ_how2LxkNcKQ-NRh1-49" value="leds/common.h" style="rounded=0;whiteSpace=wrap;html=1;" vertex="1" parent="1">
          <mxGeometry x="-2720" y="-160" width="200" height="40" as="geometry" />
        </mxCell>
        <mxCell id="oFQ_how2LxkNcKQ-NRh1-53" style="edgeStyle=none;curved=1;rounded=0;orthogonalLoop=1;jettySize=auto;html=1;entryX=0.5;entryY=1;entryDx=0;entryDy=0;fontSize=12;startSize=8;endSize=8;exitX=1;exitY=0.5;exitDx=0;exitDy=0;" edge="1" parent="1" source="oFQ_how2LxkNcKQ-NRh1-51" target="oFQ_how2LxkNcKQ-NRh1-35">
          <mxGeometry relative="1" as="geometry" />
        </mxCell>
        <mxCell id="oFQ_how2LxkNcKQ-NRh1-51" value="bcm270x.dtsi" style="rounded=1;whiteSpace=wrap;html=1;" vertex="1" parent="1">
          <mxGeometry x="-2960" y="560" width="160" height="40" as="geometry" />
        </mxCell>
        <mxCell id="oFQ_how2LxkNcKQ-NRh1-52" value="" style="edgeStyle=elbowEdgeStyle;elbow=horizontal;endArrow=classic;html=1;curved=0;rounded=0;endSize=8;startSize=8;fontSize=12;exitX=0.5;exitY=1;exitDx=0;exitDy=0;entryX=0;entryY=0.5;entryDx=0;entryDy=0;" edge="1" parent="1" source="oFQ_how2LxkNcKQ-NRh1-7" target="oFQ_how2LxkNcKQ-NRh1-51">
          <mxGeometry width="50" height="50" relative="1" as="geometry">
            <mxPoint x="-3040" y="40" as="sourcePoint" />
            <mxPoint x="-3000" y="580" as="targetPoint" />
            <Array as="points">
              <mxPoint x="-3040" y="120" />
              <mxPoint x="-2980" y="240" />
            </Array>
          </mxGeometry>
        </mxCell>
        <mxCell id="oFQ_how2LxkNcKQ-NRh1-54" value="" style="edgeStyle=elbowEdgeStyle;elbow=horizontal;endArrow=classic;html=1;curved=0;rounded=0;endSize=8;startSize=8;fontSize=12;entryX=0;entryY=0.5;entryDx=0;entryDy=0;exitX=0.5;exitY=1;exitDx=0;exitDy=0;" edge="1" parent="1" source="oFQ_how2LxkNcKQ-NRh1-7" target="oFQ_how2LxkNcKQ-NRh1-37">
          <mxGeometry width="50" height="50" relative="1" as="geometry">
            <mxPoint x="-3080" y="200" as="sourcePoint" />
            <mxPoint x="-2960" y="740" as="targetPoint" />
            <Array as="points">
              <mxPoint x="-3040" y="230" />
              <mxPoint x="-3020" y="400" />
            </Array>
          </mxGeometry>
        </mxCell>
        <mxCell id="oFQ_how2LxkNcKQ-NRh1-55" value="" style="edgeStyle=elbowEdgeStyle;elbow=horizontal;endArrow=classic;html=1;curved=0;rounded=0;endSize=8;startSize=8;fontSize=12;entryX=0;entryY=0.5;entryDx=0;entryDy=0;exitX=0.5;exitY=1;exitDx=0;exitDy=0;" edge="1" parent="1" source="oFQ_how2LxkNcKQ-NRh1-7" target="oFQ_how2LxkNcKQ-NRh1-41">
          <mxGeometry width="50" height="50" relative="1" as="geometry">
            <mxPoint x="-3080" y="330" as="sourcePoint" />
            <mxPoint x="-3000" y="710" as="targetPoint" />
            <Array as="points">
              <mxPoint x="-3040" y="270" />
              <mxPoint x="-3020" y="690" />
            </Array>
          </mxGeometry>
        </mxCell>
        <mxCell id="oFQ_how2LxkNcKQ-NRh1-58" value="" style="edgeStyle=elbowEdgeStyle;elbow=horizontal;endArrow=classic;html=1;curved=0;rounded=0;endSize=8;startSize=8;fontSize=12;exitX=0.5;exitY=1;exitDx=0;exitDy=0;entryX=0;entryY=0.5;entryDx=0;entryDy=0;" edge="1" parent="1" source="oFQ_how2LxkNcKQ-NRh1-7" target="oFQ_how2LxkNcKQ-NRh1-8">
          <mxGeometry width="50" height="50" relative="1" as="geometry">
            <mxPoint x="-3010" y="250" as="sourcePoint" />
            <mxPoint x="-2930" y="470" as="targetPoint" />
            <Array as="points">
              <mxPoint x="-3040" y="100" />
            </Array>
          </mxGeometry>
        </mxCell>
      </root>
    </mxGraphModel>
  </diagram>
</mxfile>
